<svg width="157" height="67" viewBox="0 0 157 67" fill="none" xmlns="http://www.w3.org/2000/svg">
  <path
    d="M41.6676 0.868567C41.6676 0.868567 41.4569 1.34452 41.2462 1.76759C37.8745 9.27708 34.9244 16.0991 32.659 21.7047C31.7108 21.599 30.6045 21.4932 29.4981 21.4932C28.7606 21.4932 28.2338 21.5461 27.1801 21.7576C29.6562 15.4116 32.501 8.32517 35.3458 1.82047C35.9253 0.445497 33.6073 0.92145 33.6073 0.92145C33.6073 0.92145 33.4493 1.34452 33.2385 1.82047C30.183 8.48382 27.1275 15.676 24.4934 22.1807C23.071 22.6038 21.912 23.3441 20.1735 24.5076C15.6429 27.522 10.9542 32.9161 6.21284 40.4785C3.57876 44.7092 1.84026 49.2043 1.10272 53.5407C0.47054 57.2955 0.733949 60.7329 1.7349 63.2185C2.47244 65.0694 3.63144 66.1799 5.00116 66.4972C5.15921 66.5501 5.73871 66.5501 5.89675 66.5501C6.95039 66.5501 8.0567 65.7569 9.32106 64.0646C10.4274 62.5839 11.6391 60.4156 13.0088 57.4012C15.5375 51.9542 18.3296 44.762 20.7003 38.3631C21.5432 36.0362 25.2309 26.4114 26.4426 23.397C27.8123 23.0268 28.4972 22.974 29.3928 22.974C30.2884 22.974 31.184 23.0268 31.9742 23.1326C30.025 27.945 28.6552 31.7527 27.9177 34.344C27.9177 34.344 27.8123 34.767 27.707 35.0314C27.3909 36.0362 29.9196 36.0362 30.1303 35.2959C30.2884 34.6613 30.3411 34.3968 30.3937 34.2382C32.1849 28.3152 36.8209 16.4164 43.3007 1.76759C43.8276 0.604148 41.6676 0.868567 41.6676 0.868567ZM20.8583 31.3296C20.0681 33.3392 19.2779 35.5074 18.3823 37.8343C16.0116 44.1803 13.3249 51.3725 10.7961 56.7666C9.47911 59.6224 8.26743 61.7906 7.26648 63.1656C5.89675 65.0165 5.63334 65.1223 5.36994 65.0165C4.47435 64.805 3.68412 63.9588 3.10462 62.5839C2.20904 60.4156 1.99831 57.1897 2.57781 53.6994C3.26267 49.5745 4.94848 45.238 7.4772 41.166C12.0605 33.7622 16.6438 28.5267 20.9637 25.671C22.1227 24.8778 22.7549 24.3489 23.7558 23.9259C22.7022 26.6229 21.7013 29.1085 20.8583 31.3296Z"
    fill="#BF0702"
  />
  <path
    d="M65.5324 38.3631C65.3217 38.3102 60.5277 36.8823 50.3074 38.0986C50.1494 38.0986 49.6752 38.1515 49.6752 38.1515C49.6752 38.1515 49.7279 38.6275 49.7279 38.839C49.7806 39.2092 50.0967 39.4736 50.4655 39.4207C60.4223 38.2573 65.111 39.6323 65.1636 39.6323C65.2163 39.6323 65.269 39.6851 65.3744 39.6851C65.6378 39.6851 65.9012 39.4736 66.0065 39.2092C66.0592 38.839 65.8485 38.4688 65.5324 38.3631Z"
    fill="#BF0702"
  />
  <path
    d="M156.724 34.8199C156.724 34.8199 152.721 32.9161 143.607 33.2863C140.13 33.4449 136.02 34.1324 132.754 34.3968C131.911 34.4497 130.91 33.8151 131.543 32.1228C132.28 30.1661 135.125 23.5557 135.125 23.5557C133.65 22.5509 130.594 22.2336 128.961 22.7624C125.906 23.7143 123.693 26.8874 123.272 27.5748C122.007 29.796 118.477 33.6036 116.318 33.5507C115.159 33.5507 114.842 29.6902 114.79 29.0556C114.737 28.7912 114.737 28.5796 114.684 28.3681C114.632 27.9979 114.105 27.7335 113.736 27.7864H112.63C113.262 26.9402 116.001 22.974 118.214 22.974C119.215 22.974 119.478 23.9259 119.004 25.0364C118.794 25.5124 118.319 26.0941 118.056 26.3585C118.003 26.4114 118.056 26.5172 118.109 26.5172C118.583 26.4643 119.689 26.3056 120.163 26.147C120.954 25.8826 121.217 24.9835 121.27 24.4547C121.375 23.0268 120.532 21.599 118.583 21.5461C118.003 21.5461 116.476 21.8105 114.79 23.3442C113.525 24.4547 112.314 26.3585 111.998 26.7816L113.42 23.1326C113.525 22.8153 113.315 22.498 112.999 22.498H111.313L109.153 28.5268C108.468 29.4787 105.254 32.2815 102.831 33.2334C103.252 32.8103 103.99 31.1181 104.148 30.6421C105.307 27.2047 103.252 26.0412 101.303 26.3056C100.513 26.4114 99.8809 26.7816 99.196 27.3104L100.724 23.1855C100.829 22.8682 100.618 22.498 100.25 22.498C99.5648 22.4451 98.5638 22.5509 98.5638 22.5509C98.5638 22.5509 96.4565 28.3681 95.719 30.3777C95.0868 32.0171 92.5054 34.1853 91.0303 34.0267C90.5562 33.9738 90.4508 33.1276 90.7669 32.1228C91.6625 29.2671 93.8225 23.2384 93.8225 23.2384C93.9278 22.9211 93.6644 22.5509 93.3483 22.5509H92.242C92.1367 22.5509 91.8732 22.5509 91.8732 22.5509C91.8732 22.5509 91.8205 22.8153 91.7679 22.9211L89.924 27.6806H85.7095L87.2373 23.2384C87.3426 22.9211 87.0792 22.5509 86.7631 22.5509H85.5514C85.4461 22.5509 85.1827 22.5509 85.1827 22.5509C85.1827 22.5509 85.0773 22.8153 85.0773 22.9211L83.7076 26.9931C83.5495 27.7864 80.2833 31.1709 79.1243 32.1228C77.3858 33.4978 74.857 34.8199 73.8561 33.8151C73.0132 33.0219 73.6454 31.3296 73.8561 30.7479C73.8561 30.7479 75.9634 30.1661 77.2277 29.6902C79.177 28.9498 80.8628 27.5748 81.1789 25.3537C81.3896 23.8201 80.5994 22.3922 78.8609 22.1807C77.5965 22.0221 75.4892 22.1807 73.8561 24.4018C72.6971 25.9883 71.6962 28.6854 71.6435 29.1085C71.4327 29.5844 71.0113 30.0604 70.1684 31.0652C68.904 32.5459 67.5343 34.0267 66.7441 34.0267C65.5324 34.0267 65.7958 32.9161 65.9012 32.5459L69.8523 23.2913C69.9577 22.974 69.6942 22.6038 69.3782 22.6038H67.9557C67.8504 22.6038 67.587 22.6038 67.587 22.6038C67.587 22.6038 67.5343 22.8153 67.4816 22.974C67.1655 23.873 65.9538 26.3585 65.5324 27.3104C64.6895 29.1614 63.6359 30.4306 63.3198 30.9065C63.0037 31.3825 62.6349 31.8584 62.2661 32.2815C61.8447 32.7046 60.2115 34.3968 59.2106 34.0795C58.5784 33.868 58.7891 33.0219 58.8945 32.7574L62.951 23.2913C63.0564 22.974 62.7929 22.6038 62.4769 22.6038H60.8437C60.633 22.6038 60.4223 22.7624 60.3696 22.974C60.0008 24.0316 58.315 27.2047 57.6301 28.7383C57.4721 29.0556 56.6292 30.5892 56.3131 31.1181C55.997 31.594 55.5756 32.0171 55.2068 32.493C54.5746 33.2863 51.0976 35.9305 51.8878 32.969L56.1024 23.3442C56.2077 23.0268 55.997 22.6567 55.6282 22.6567H54.1005C53.8897 22.6567 53.7317 22.7624 53.6263 22.974C53.4156 23.397 52.9942 24.2432 52.6254 24.8778C50.9396 27.945 49.3064 30.219 46.3563 32.8103C45.1973 33.868 44.3544 34.344 43.9329 34.0795C43.3007 33.6565 43.6695 32.7574 43.7749 32.5459L47.884 23.3442C45.408 21.9163 42.3525 22.1278 40.4032 22.974C39.2969 23.4499 38.1379 24.4547 37.3477 25.3537C36.5575 26.2528 34.5556 29.32 34.6083 32.0171C34.6083 32.493 34.6609 32.969 34.819 33.3921C34.977 33.8151 35.1878 34.2382 35.5038 34.5555C35.7673 34.8728 36.136 35.1372 36.5048 35.3488C36.8736 35.5603 37.295 35.6132 37.7692 35.6132C39.455 35.6132 40.9301 33.5507 41.4569 32.7574C41.4042 33.2863 41.2988 35.6132 43.3007 35.6132C46.567 35.6661 49.7279 30.9065 50.1493 30.3777C49.9386 30.9594 49.7279 31.4354 49.6225 31.9642C49.4645 32.6517 49.4118 33.1276 49.4118 33.4978C49.4118 34.2382 49.6225 34.767 49.9913 35.1372C50.3601 35.5074 50.9396 35.6661 51.6244 35.6661C54.3112 35.6132 55.7863 33.3392 56.7872 32.07C56.6819 32.493 56.5765 32.9161 56.5765 33.3392C56.5765 33.7622 56.6292 34.1324 56.7346 34.4497C56.8926 34.767 57.1033 35.0314 57.3667 35.243C57.6828 35.4545 58.0516 35.5074 58.5784 35.5074C61.0545 35.4016 62.7403 33.1276 63.7412 31.9113C63.6359 32.4401 63.5305 32.9161 63.5305 33.3392C63.5305 33.7622 63.5832 34.1324 63.7412 34.4497C63.8993 34.767 64.11 35.0315 64.4261 35.1901C64.7422 35.3488 65.1636 35.4545 65.7431 35.4545C68.0611 35.4545 71.222 31.3296 71.5381 30.9065C71.5908 31.4354 70.2738 35.5074 74.3302 35.5603C78.018 35.6132 82.2325 30.8536 82.97 29.5844L81.2315 34.6084C81.1789 34.767 81.0735 35.2959 81.7057 35.2959H82.9173C83.2334 35.2959 83.4442 35.1372 83.4968 34.9257L85.288 29.1614H89.5552L88.9231 31.0652C88.7123 31.8055 88.2382 33.5507 88.8704 34.3968C89.1338 34.767 89.5026 35.2959 90.3455 35.2959C92.5581 35.3487 94.6127 33.5507 95.0868 33.0219C95.0868 33.1276 95.0868 33.2334 95.0868 33.2863C95.1395 34.767 96.5619 35.5603 98.7218 35.5074C102.093 35.4016 105.729 33.5507 108.626 30.6421L107.309 34.5026C107.204 34.8199 107.467 35.1901 107.783 35.1901H109.1C109.364 35.1901 109.627 34.9786 109.732 34.767C110.312 32.969 111.523 29.4787 111.523 29.4787C111.523 29.4787 111.734 29.4787 112.103 29.4787C113.315 29.4258 113.157 35.243 115.475 35.243C117.055 35.243 118.372 34.344 118.952 33.9738C120.216 33.1805 121.954 31.2238 122.376 30.3248C121.586 31.9113 122.376 35.5074 124.694 35.5603C127.275 35.6132 128.54 33.7094 129.066 32.9161C128.698 34.9786 130.489 36.142 132.754 35.7718C134.703 35.4545 140.762 34.6613 143.554 34.6084C152.563 34.344 156.092 36.0362 156.145 36.0362C156.198 36.0362 156.25 36.0362 156.25 36.0362C156.566 36.0362 156.619 35.7718 156.724 35.4545C156.935 35.0843 156.724 34.8199 156.724 34.8199ZM76.0687 24.772C77.0697 23.5028 77.8072 23.1855 78.4394 23.1855C79.6511 23.1855 79.7038 24.4018 79.5457 25.0893C79.3877 25.8826 79.1769 26.8345 77.3858 27.8921C76.2795 28.5796 74.541 29.0027 73.9615 29.0027C74.0141 29.0027 74.3829 26.8874 76.0687 24.772ZM42.7739 28.1566C42.5105 28.6854 42.0364 29.6902 41.5096 30.4834C40.6666 31.8055 39.1389 33.8151 37.6111 33.8151C36.3994 33.8151 36.1887 30.3248 38.454 26.8345C41.0881 22.7095 43.9856 23.3442 45.0919 23.5028C45.0392 23.5557 43.6695 26.2528 42.7739 28.1566ZM101.725 31.8584C101.409 32.3344 100.25 34.0267 98.7745 34.1324C98.0897 34.1853 97.3521 33.8151 97.2994 33.1276C97.2468 32.4401 98.7218 28.7912 98.7218 28.7912C99.0379 28.5268 100.46 27.1518 101.883 27.2575C104.043 27.522 102.041 31.3825 101.725 31.8584ZM124.747 33.5507C123.798 32.969 123.377 30.9065 125.168 27.9979C127.328 24.4018 130.12 23.3442 132.596 23.8201L129.804 29.32C129.277 30.219 126.432 34.6084 124.747 33.5507Z"
    fill="#BF0702"
  />
</svg>
