<svg width="249" height="67" viewBox="0 0 249 67" fill="none" xmlns="http://www.w3.org/2000/svg">
<path d="M25.0475 20.5845C23.6659 21.8857 22.3332 22.7592 20.3724 22.7592C17.4131 22.7592 15.2655 20.4209 15.2655 17.1873V17.1131C15.2655 14.0258 17.4105 11.6219 20.1295 11.6219C22.2018 11.6219 23.4794 12.5189 24.7563 13.8642L24.9608 14.0774L29.0209 9.71462L28.8546 9.52882C26.5909 7.00213 23.9212 5.88213 20.166 5.88213C16.9899 5.88213 14.0776 7.04588 11.9724 9.21045C9.89944 11.3051 8.75977 14.145 8.75977 17.1873V17.2656C8.75977 20.2991 9.90662 23.1194 11.9818 25.2049C14.0776 27.3296 16.9599 28.4983 20.0874 28.4983C24.712 28.4983 27.0895 26.5943 28.9717 24.5378L29.1464 24.335L25.2448 20.3886L25.0475 20.5845ZM82.3087 0.841797H75.8013V6.26449H73.1565V11.6219H75.8013V21.8224C75.8013 26.3752 77.7536 28.4983 82.1858 28.4983C84.0778 28.4983 85.643 28.0937 87.0983 27.2251L87.247 27.1461V21.8227L86.8221 22.0412C85.9423 22.5218 84.9902 22.7592 83.9751 22.7592C82.8054 22.7592 82.3087 22.2276 82.3087 20.9724V11.6219H87.3214V6.26482H82.3087V0.841797ZM100.033 5.88213C96.7821 5.88213 93.7825 7.04588 91.5928 9.18662C89.4197 11.2944 88.222 14.145 88.222 17.1873V17.2656C88.222 20.3082 89.4126 23.1376 91.5673 25.2245C93.7469 27.3355 96.7172 28.4983 99.9468 28.4983C103.197 28.4983 106.185 27.327 108.38 25.185C110.558 23.072 111.753 20.2403 111.753 17.1873V17.1131C111.753 14.0692 110.571 11.2353 108.414 9.14449C106.234 7.03184 103.261 5.88213 100.033 5.88213ZM105.248 17.2656C105.248 20.4957 103.105 22.7592 100.033 22.7592C97.0048 22.7592 94.7294 20.3693 94.7294 17.1873V17.1131C94.7294 13.8789 96.8682 11.6219 99.9468 11.6219C102.972 11.6219 105.248 14.0154 105.248 17.1869V17.2656ZM120.123 9.58694V6.26482H113.621V28.0294H120.123V19.662C120.123 14.9577 122.255 12.4689 126.297 12.4689H126.891V5.88703L126.625 5.88213C123.7 5.74629 121.556 6.96 120.123 9.58694ZM178.604 5.88213C175.89 5.88213 173.623 6.91168 171.691 9.02466C170.476 6.99592 168.344 5.88213 165.659 5.88213C162.748 5.88213 160.95 7.3156 159.679 8.7729V6.26482H153.185V28.0294H159.679V15.647C159.679 13.0511 160.877 11.6219 163.05 11.6219C165.724 11.6219 166.333 13.8136 166.333 15.647V28.0294H172.827V15.647C172.827 13.0511 174.065 11.6219 176.231 11.6219C178.912 11.6219 179.479 13.8136 179.479 15.647V28.0294H185.971V13.9422C185.971 8.80947 183.346 5.88213 178.604 5.88213ZM45.4854 8.80947C44.0926 7.0756 41.9382 5.88245 39.4228 5.88245C33.9526 5.88245 29.1471 10.976 29.1471 17.1876V17.266C29.1471 23.4142 33.7958 28.4986 39.4228 28.4986C41.9382 28.4986 44.0923 27.2741 45.4854 25.5105V28.0297H51.9915V6.26482H45.4854V8.80947ZM45.7492 17.2656C45.7492 20.4957 43.6935 22.7592 40.7362 22.7592C37.8376 22.7592 35.6486 20.3693 35.6486 17.1873V17.1131C35.6486 13.8789 37.7059 11.6219 40.6677 11.6219C43.5634 11.6219 45.7492 14.0154 45.7492 17.1869V17.2656ZM143.923 8.80947C142.526 7.0756 140.374 5.88245 137.855 5.88245C132.387 5.88245 127.581 10.976 127.581 17.1876V17.266C127.581 23.4142 132.227 28.4986 137.855 28.4986C140.374 28.4986 142.526 27.2741 143.923 25.5105V28.0297H150.42V6.26482H143.923V8.80947ZM144.18 17.2656C144.18 20.4957 142.126 22.7592 139.173 22.7592C136.271 22.7592 134.089 20.3693 134.089 17.1873V17.1131C134.089 13.8789 136.141 11.6219 139.101 11.6219C141.99 11.6219 144.18 14.0154 144.18 17.1869V17.2656ZM203.95 6.26482V8.80947C202.557 7.0756 200.408 5.88245 197.882 5.88245C192.415 5.88245 187.612 10.976 187.612 17.1876V17.266C187.612 23.4142 192.261 28.4986 197.882 28.4986C200.408 28.4986 202.558 27.2741 203.95 25.5105V28.0297H210.452V6.26482H203.95ZM204.214 17.2656C204.214 20.4957 202.156 22.7592 199.205 22.7592C196.304 22.7592 194.116 20.3693 194.116 17.1873V17.1131C194.116 13.8789 196.182 11.6219 199.128 11.6219C202.031 11.6219 204.214 14.0154 204.214 17.1869V17.2656ZM60.965 12.7435C60.965 11.8328 61.9466 11.6219 62.9131 11.6219C65.8965 11.6219 68.6731 13.5007 68.6731 13.5007L71.3829 8.53715L71.1664 8.39543C68.8273 6.80751 65.7823 5.87233 63.0315 5.87233C60.0344 5.87233 54.4645 7.68458 54.4645 12.6034C54.4645 20.2586 65.7386 18.8493 65.7386 21.7218C65.7386 22.5669 64.6479 22.7592 63.4707 22.7592C59.9066 22.7592 56.8417 20.3706 56.8417 20.3706L53.7536 25.0518L53.9698 25.2085C56.6555 27.3355 59.9809 28.4999 63.3174 28.4999C68.6177 28.4999 72.2421 25.0302 72.2421 21.7218C72.2418 14.4653 60.965 15.3283 60.965 12.7435Z" fill="#0071B9"/>
<path d="M234.993 11.623C238.064 11.623 240.561 14.1119 240.561 17.1796C240.561 20.2568 238.064 22.7398 234.993 22.7398H221.997C218.922 22.7398 216.421 20.2487 216.421 17.1796C216.421 14.1044 218.922 11.623 221.997 11.623H234.993Z" fill="#FFDD00"/>
</svg>
