<svg width="28" height="28" viewBox="0 0 28 28" fill="none" xmlns="http://www.w3.org/2000/svg">
<path d="M0 13.44C0 7.1043 0 3.93648 1.96824 1.96824C3.93648 0 7.1043 0 13.44 0H14.56C20.8957 0 24.0635 0 26.0318 1.96824C28 3.93648 28 7.1043 28 13.44V14.56C28 20.8957 28 24.0635 26.0318 26.0318C24.0635 28 20.8957 28 14.56 28H13.44C7.1043 28 3.93648 28 1.96824 26.0318C0 24.0635 0 20.8957 0 14.56V13.44Z" fill="black"/>
<path d="M12.8559 13.3516C12.8559 13.3516 14.6394 13.2157 14.6394 11.0692C14.6394 8.9226 13.1803 7.875 11.332 7.875H5.25V19.8707H11.332C11.332 19.8707 15.0448 19.991 15.0448 16.3301C15.0448 16.3301 15.2067 13.3516 12.8559 13.3516ZM10.8942 10.0071H11.332C11.332 10.0071 12.1587 10.0071 12.1587 11.2552C12.1587 12.5031 11.6725 12.6841 11.121 12.6841H7.9298V10.0071H10.8942ZM11.1601 17.7387H7.9298V14.533H11.332C11.332 14.533 12.5642 14.5164 12.5642 16.1804C12.5642 17.5835 11.6439 17.7281 11.1601 17.7387ZM19.9965 10.9271C15.5017 10.9271 15.5057 15.5362 15.5057 15.5362C15.5057 15.5362 15.1973 20.1216 19.9965 20.1216C19.9965 20.1216 23.9958 20.3561 23.9958 16.9318H21.939C21.939 16.9318 22.0076 18.2213 20.0651 18.2213C20.0651 18.2213 18.008 18.3628 18.008 16.1343H24.0644C24.0644 16.1343 24.7271 10.9271 19.9965 10.9271ZM17.9854 14.533C17.9854 14.533 18.2366 12.684 20.0422 12.684C21.8475 12.684 21.8249 14.533 21.8249 14.533H17.9854ZM22.304 10.0589H17.4819V8.5817H22.304V10.0589Z" fill="white"/>
</svg>
