<svg width="28" height="28" viewBox="0 0 28 28" fill="none" xmlns="http://www.w3.org/2000/svg">
<path d="M0 13.44C0 7.1043 0 3.93648 1.96824 1.96824C3.93648 0 7.1043 0 13.44 0H14.56C20.8957 0 24.0635 0 26.0318 1.96824C28 3.93648 28 7.1043 28 13.44V14.56C28 20.8957 28 24.0635 26.0318 26.0318C24.0635 28 20.8957 28 14.56 28H13.44C7.1043 28 3.93648 28 1.96824 26.0318C0 24.0635 0 20.8957 0 14.56V13.44Z" fill="#2BACEE"/>
<path fill-rule="evenodd" clip-rule="evenodd" d="M6.33719 13.852C10.4185 12.0738 13.14 10.9015 14.5017 10.3352C18.3896 8.71802 19.1975 8.43711 19.7241 8.42783C19.8399 8.42579 20.0988 8.4545 20.2666 8.5906C20.4082 8.70553 20.4472 8.86078 20.4658 8.96974C20.4845 9.0787 20.5077 9.32692 20.4892 9.52087C20.2785 11.7346 19.3669 17.1067 18.9031 19.5862C18.7069 20.6353 18.3204 20.9871 17.9463 21.0215C17.1333 21.0963 16.516 20.4842 15.7285 19.968C14.4963 19.1603 13.8002 18.6575 12.6042 17.8693C11.222 16.9585 12.118 16.4578 12.9057 15.6397C13.1119 15.4255 16.694 12.1673 16.7633 11.8717C16.772 11.8348 16.7801 11.697 16.6982 11.6242C16.6163 11.5515 16.4955 11.5763 16.4083 11.5961C16.2848 11.6242 14.3163 12.9252 10.5031 15.4993C9.94433 15.883 9.43825 16.0699 8.98482 16.0601C8.48494 16.0493 7.52339 15.7775 6.80857 15.5451C5.93182 15.2601 5.235 15.1094 5.29568 14.6254C5.32728 14.3733 5.67445 14.1155 6.33719 13.852Z" fill="white"/>
</svg>
