<svg width="28" height="28" viewBox="0 0 28 28" fill="none" xmlns="http://www.w3.org/2000/svg">
<path d="M0 13.44C0 7.1043 0 3.93648 1.96824 1.96824C3.93648 0 7.1043 0 13.44 0H14.56C20.8957 0 24.0635 0 26.0318 1.96824C28 3.93648 28 7.1043 28 13.44V14.56C28 20.8957 28 24.0635 26.0318 26.0318C24.0635 28 20.8957 28 14.56 28H13.44C7.1043 28 3.93648 28 1.96824 26.0318C0 24.0635 0 20.8957 0 14.56V13.44Z" fill="#0077FF"/>
<path d="M14.9512 19.8276C8.60103 19.8276 4.97904 15.3878 4.82812 8H8.00902C8.11351 13.4225 10.4585 15.7193 12.316 16.1929V8H15.3112V12.6766C17.1455 12.4753 19.0723 10.3442 19.7225 8H22.7177C22.2185 10.8888 20.1288 13.0199 18.6429 13.896C20.1288 14.6064 22.5088 16.4652 23.4143 19.8276H20.1172C19.4091 17.5781 17.6447 15.8377 15.3112 15.6009V19.8276H14.9512Z" fill="white"/>
</svg>
