<svg width="259" height="145" viewBox="0 0 259 145" fill="none" xmlns="http://www.w3.org/2000/svg">
<g clip-path="url(#clip0_188_2455)">
<path d="M66.111 27.4352L27.9887 24.5181C25.8693 24.356 25.2315 27.3114 27.231 28.025L66.0964 41.8944C66.4036 42.004 66.6757 42.1934 66.8839 42.4428L78.4438 56.2933C79.5514 57.6206 81.7245 56.8059 81.6709 55.0837L80.8532 28.7941C80.8221 27.7952 79.9809 27.0104 78.9743 27.0412L66.111 27.4352Z" fill="#B5B8C1" stroke="#1A1A1A" stroke-width="1.5"/>
<path d="M107.743 15.5386L5.88623 1.59973C4.85593 1.45873 4.42922 2.86491 5.36697 3.31163L74.564 36.2802C74.8377 36.4105 75.1586 36.3972 75.4204 36.2447L108.08 17.2152C108.826 16.7806 108.6 15.6559 107.743 15.5386Z" fill="#B5B8C1" stroke="#1A1A1A" stroke-width="1.5"/>
<path d="M4.69403 2.94657L33.7852 59.5009C34.0241 59.9655 34.6045 60.1365 35.0553 59.876L76.6446 35.8001C77.2801 35.4322 77.2315 34.5009 76.5606 34.1927L5.88023 1.71424C5.09474 1.35335 4.29969 2.1796 4.69403 2.94657Z" fill="#B5B8C1" stroke="#1A1A1A" stroke-width="1.5"/>
<g clip-path="url(#clip1_188_2455)">
<path d="M0.846637 93.2263C29.6296 81.6472 60.3843 77.0007 84.1945 98.9664C133.351 144.314 148.538 88.5075 126.397 87.5265C97.4458 86.244 96.2005 136.185 112.769 142.891C134.56 151.711 155.061 120.307 155.994 117.504" stroke="#202A44" stroke-width="1.5" stroke-linecap="round" stroke-linejoin="round" stroke-dasharray="9 11"/>
</g>
<path d="M179.468 68.8446L228.043 65.1215C230.744 64.9145 231.557 68.6865 229.009 69.5974L179.487 87.299C179.095 87.4389 178.749 87.6807 178.483 87.999L163.754 105.677C162.343 107.371 159.574 106.331 159.642 104.133L160.684 70.5789C160.723 69.304 161.795 68.3024 163.078 68.3418L179.468 68.8446Z" fill="#E04F39" stroke="#1A1A1A" stroke-width="1.5"/>
<path d="M126.418 53.6624L256.204 35.872C257.516 35.692 258.06 37.4868 256.865 38.0569L168.695 80.1352C168.346 80.3015 167.937 80.2846 167.604 80.09L125.988 55.8022C125.038 55.2475 125.326 53.8121 126.418 53.6624Z" fill="#E04F39" stroke="#1A1A1A" stroke-width="1.5"/>
<path d="M257.728 37.5905L220.66 109.772C220.356 110.365 219.616 110.583 219.042 110.25L166.049 79.522C165.239 79.0524 165.301 77.8638 166.156 77.4704L256.216 36.0177C257.217 35.557 258.23 36.6116 257.728 37.5905Z" fill="#E04F39" stroke="#1A1A1A" stroke-width="1.5"/>
</g>
<defs>
<clipPath id="clip0_188_2455">
<rect width="259" height="145" fill="white"/>
</clipPath>
<clipPath id="clip1_188_2455">
<rect width="127" height="101" fill="white" transform="translate(74.6641 25) rotate(47.6669)"/>
</clipPath>
</defs>
</svg>
